
<svg  xmlns="http://www.w3.org/2000/svg" xmlns:xlink="http://www.w3.org/1999/xlink" x="0px" y="0px"
	 viewBox="0 0 300.4 227.5" style="enable-background:new 0 0 300.4 227.5;" xml:space="preserve">
<style type="text/css">
	.st0{fill:#404041;}
	.st1{fill:#F1592A;}
</style>
<g>
	<path class="st0" d="M261.3,112.7l0.6-2.5c33-12.6,40.3-44.3,38.1-73.2c-2.2-28.9-38.7-27-38.7-27H153.7H138l13.3,1.3l-36.2,212.2
		l-17.4,4h20.2H238c38.4-6.9,52.5-36.8,53.5-75.5C292.5,113.3,261.3,112.7,261.3,112.7z M215.4,175.6h-37.9l14.9-35.4h29.1
		c0,0,7,1,7.1,9.4C228.7,158,228.1,171.9,215.4,175.6z M236.2,73.3c-0.3,2-1.3,15.7-12.9,16.4h-22L188.9,57h41.6c0,0,7-0.3,6.3,8.2
		C236.8,65.2,236.5,71.3,236.2,73.3z"/>
	<path class="st1" d="M152.3,10.1c0,0-60.8-2.1-88.5-2.2C36.1,7.8,32.7,0,32.7,0s2.5,21.5-2.5,50C20.6,106.2,0,227.5,0,227.5l96.9,0
		c0,0,47.4,2.4,77.2-31.6c16.3-18.5,30.7-70.9,30.7-124.2C204.8,12.6,152.3,10.1,152.3,10.1z M139.7,77.2
		c-1.7,11.7-13.4,82.2-13.4,82.2s-2.1,10.5-15.5,11.3c-13.4,0.8-36.5,0-36.5,0L91,64.6h37.8C128.8,64.6,141.4,65.5,139.7,77.2z"/>
</g>
</svg>
